<svg width="98" height="98" viewBox="0 0 98 98" fill="none" xmlns="http://www.w3.org/2000/svg">
<circle cx="49" cy="49" r="49" fill="#222222" fill-opacity="0.1"/>
<path d="M63.9863 22H29.195C27.2793 22 25.7264 23.5529 25.7264 25.4687V31.7547C25.7264 33.6704 27.2794 35.2234 29.1951 35.2234H32.549L33.1223 35.7936H37.1856L37.8711 35.2234H63.9863C65.9019 35.2234 67.4548 33.6704 67.4548 31.7547V25.4687C67.4548 23.5529 65.9019 22 63.9863 22V22Z" fill="#95D6A4"/>
<path d="M31.9637 35.2233C32.4116 35.2233 32.7504 35.6286 32.671 36.0694L31.8887 40.4133C31.8196 40.7968 32.2806 41.0455 32.5632 40.7772L38.206 35.4207C38.3396 35.294 38.5167 35.2233 38.7009 35.2233H31.9637Z" fill="#78C2A4"/>
<path d="M69.8051 22H63.3131C65.2288 22 66.7818 23.5529 66.7818 25.4687V31.7547C66.7818 33.6704 65.2289 35.2234 63.3132 35.2234H60.2992C60.4834 35.2234 60.6605 35.2941 60.7941 35.4209L66.4369 40.7774C66.7195 41.0456 67.1804 40.7969 67.1114 40.4135L66.3291 36.0696C66.2497 35.6288 66.5885 35.2234 67.0365 35.2234H69.8051C71.7207 35.2234 73.2738 33.6704 73.2738 31.7547V25.4687C73.2737 23.5529 71.7207 22 69.8051 22V22Z" fill="#78C2A4"/>
<path d="M29.7332 71.7046C29.2728 69.1428 31.1648 66.7582 33.7642 66.6242C36.0641 66.5055 37.867 64.6041 37.8633 62.3011L37.8432 49.9552C37.8432 49.4339 37.802 48.825 37.7089 48.2113C37.5702 47.3017 37.387 46.7415 37.2507 46.3071H32.3823C28.8503 46.3071 25.987 49.1705 25.987 52.7025V72.0065H29.7874L29.7332 71.7046Z" fill="#D5985C"/>
<path d="M45.101 58.4269L43.7772 55.6479C43.6986 55.4829 43.6567 55.303 43.6545 55.1203L43.6293 53.0873C43.6293 50.5323 42.7441 48.1701 41.2629 46.3071H36.3333C36.357 46.4871 36.3984 46.6664 36.4594 46.8424C36.8472 47.961 37.0581 49.1608 37.0581 50.4067L37.0772 62.0762C37.0808 64.2531 35.3766 66.0503 33.2026 66.1625C30.7456 66.2893 28.9572 68.5432 29.3924 70.9647L29.5796 72.0065H35.6061L35.1435 69.082C34.9868 68.092 35.7524 67.1963 36.7548 67.197L40.5307 67.1996C41.713 67.2014 42.6725 66.2435 42.6726 65.0612L42.6729 61.5216C42.673 60.818 43.2376 60.2229 43.9412 60.2334C44.879 60.2475 45.5037 59.2722 45.101 58.4269Z" fill="#C38959"/>
<path d="M30.9128 61.3007V59.7373C30.9128 58.9043 31.2984 58.1181 31.957 57.6081L34.6417 55.5293C35.6436 54.7535 36.2301 53.5577 36.2301 52.2904C36.2301 50.9789 36.8473 49.8123 37.8061 49.0625C37.7841 48.786 37.7523 48.5005 37.7088 48.2134C37.4874 46.7621 37.1529 46.1999 37.0763 45.6201H37.0769C37.0345 45.2972 37.0481 44.972 37.1135 44.6566L36.7936 44.3895H32.8929C27.2523 44.3895 23.0379 49.575 24.191 55.0964L25.9869 63.6963H28.5172C29.8403 63.6963 30.9128 62.6238 30.9128 61.3007Z" fill="#6B61B1"/>
<path d="M43.7356 44.3877H36.7936C36.3077 45.1107 36.1713 46.0119 36.4593 46.8426C36.788 47.7906 36.988 48.7974 37.0418 49.8408C37.7887 48.8402 38.9818 48.1924 40.3264 48.1924H40.8425C42.692 48.1924 44.1913 46.693 44.1913 44.8436C44.1915 44.5918 43.9874 44.3877 43.7356 44.3877Z" fill="#5E54AC"/>
<path d="M29.8149 69.7533L25.4347 69.3317C24.7467 69.2655 24.1514 69.8063 24.1514 70.4974V71.8812C24.1514 72.5279 24.6757 73.0523 25.3225 73.0523H30.9108L31.2348 72.562V71.6297C31.2348 70.7388 30.6364 69.9862 29.8149 69.7533Z" fill="#E28086"/>
<path d="M36.344 70.3815L29.243 69.698C30.1896 69.8369 30.911 70.6508 30.911 71.6294V73.052H36.2318C36.8785 73.052 37.4029 72.5277 37.4029 71.8809V71.5472C37.4028 70.9439 36.9445 70.4394 36.344 70.3815Z" fill="#DD636E"/>
<path d="M63.3938 72.0067H67.2191V65.4615C67.2191 64.2866 67.3401 63.1148 67.5803 61.9647L68.3517 58.271L69.0151 55.0946C69.7132 51.7496 68.4417 48.3802 65.8336 46.3074H57.7371C56.2558 48.1704 55.3708 50.5326 55.3708 53.0876L55.3455 55.1206C55.3433 55.3033 55.3014 55.4833 55.2229 55.6482L53.899 58.4273C53.4964 59.2726 54.1211 60.2478 55.059 60.2337C55.7625 60.223 56.3271 60.8182 56.3271 61.5219L56.3274 65.0614C56.3275 66.2437 57.2869 67.2017 58.4693 67.1999L62.2452 67.1973C63.2476 67.1966 64.0131 68.0922 63.8566 69.0822L63.3938 72.0067Z" fill="#FFDDCE"/>
<path d="M66.6177 46.3074H65.1356C67.6559 48.3105 69.0393 51.6366 68.3171 55.0946L66.8824 61.9647C66.6422 63.1148 66.5211 64.2866 66.5211 65.4615V72.0067H73.0131V52.7027C73.0131 49.1707 70.1498 46.3074 66.6177 46.3074Z" fill="#FFCBBE"/>
<path d="M68.0815 59.5653L68.3517 58.2713L69.0151 55.0948C69.7132 51.7498 68.4417 48.3804 65.8336 46.3076C64.3298 45.1123 62.4212 44.3879 60.3131 44.3879H55.2644C55.0126 44.3879 54.8085 44.5921 54.8085 44.8438C54.8085 46.6934 56.3079 48.1927 58.1574 48.1927H58.6736C60.9358 48.1927 62.7699 50.0266 62.7699 52.2889C62.7699 53.5562 63.3564 54.7519 64.3583 55.5278L67.043 57.6066C67.6567 58.0815 68.0328 58.7963 68.0815 59.5653Z" fill="#E49542"/>
<path d="M66.1072 44.3877H59.6152C65.2558 44.3877 69.4702 49.5731 68.3171 55.0946L67.6537 58.271C67.933 58.702 68.0873 59.2093 68.0873 59.7355V61.299C68.0873 62.622 69.1598 63.6945 70.4828 63.6945H73.0131L74.809 55.0946C75.9622 49.5731 71.7477 44.3877 66.1072 44.3877Z" fill="#E27D47"/>
<path d="M66.7794 69.9847L62.6563 70.3816C62.0557 70.4394 61.5974 70.944 61.5974 71.5473V71.8811C61.5974 72.5278 62.1217 73.0522 62.7684 73.0522H68.3567L68.4398 72.7874V71.7497C68.4397 70.7998 67.6957 70.041 66.7794 69.9847Z" fill="#B1E4F9"/>
<path d="M73.5653 69.3317L66.4858 70.0132C67.4943 69.9459 68.3567 70.7442 68.3567 71.7622V73.0523H73.6775C74.3243 73.0523 74.8486 72.528 74.8486 71.8812V70.4973C74.8486 69.8063 74.2533 69.2655 73.5653 69.3317Z" fill="#90D8F9"/>
<path d="M67.3897 27.2353H31.6111C31.1857 27.2353 30.8408 26.8904 30.8408 26.465C30.8408 26.0395 31.1857 25.6946 31.6111 25.6946H67.3898C67.8153 25.6946 68.1601 26.0395 68.1601 26.465C68.1601 26.8904 67.8152 27.2353 67.3897 27.2353Z" fill="#F0F7FF"/>
<path d="M49.4999 31.1108H31.6106C31.1852 31.1108 30.8403 30.7659 30.8403 30.3404C30.8403 29.9149 31.1852 29.5701 31.6106 29.5701H49.4999C49.9255 29.5701 50.2703 29.915 50.2703 30.3404C50.2703 30.7659 49.9255 31.1108 49.4999 31.1108Z" fill="#F0F7FF"/>
</svg>
