<svg width="98" height="98" viewBox="0 0 98 98" fill="none" xmlns="http://www.w3.org/2000/svg">
<circle cx="49" cy="49" r="49" fill="#222222" fill-opacity="0.1"/>
<path d="M64.7064 55.9858L44.5129 36.9966C44.158 36.6629 43.7294 36.4178 43.2619 36.281C42.7944 36.1443 42.3013 36.1198 41.8225 36.2096L35.4019 37.4123L31.1743 35.9182L23.528 50.3634C23.528 50.3634 29.7763 58.3416 31.9613 60.2945C34.1464 62.2475 46.0587 67.0593 49.9651 68.0748C53.8714 69.0902 54.127 65.4778 54.127 65.4778C57.3285 66.0242 58.0547 62.8728 58.0547 62.8728C62.8986 63.2634 62.039 59.9824 62.039 59.9824C63.7262 60.3794 64.6285 59.8799 65.1087 59.1719C65.4294 58.679 65.5649 58.0885 65.4912 57.5052C65.4176 56.9218 65.1395 56.3835 64.7064 55.9858V55.9858Z" fill="#DDB087"/>
<path d="M64.4594 37.5605L62.0375 38.2632L51.9393 37.109C51.385 37.0455 50.824 37.0749 50.2794 37.196L43.8934 38.6154C42.6337 38.895 41.53 39.649 40.8114 40.7209C39.9758 41.9663 38.8809 43.6609 38.2235 44.925C38.1542 45.0572 38.1161 45.2035 38.1122 45.3528C38.1082 45.502 38.1386 45.6501 38.2009 45.7858C38.2632 45.9214 38.3558 46.041 38.4716 46.1352C38.5873 46.2295 38.7232 46.2959 38.8686 46.3294C40.5761 46.7195 43.8182 47.0076 45.7113 44.2788L50.0083 43.8103L64.8761 56.1613L71.8832 51.9353L73.7582 49.826L64.4594 37.5605Z" fill="#F0C191"/>
<path d="M47.6962 63.6092C47.2611 63.3689 46.7484 63.3113 46.2708 63.449C45.7932 63.5867 45.3899 63.9084 45.1494 64.3434L43.9222 66.5695C43.8031 66.785 43.7276 67.0218 43.7 67.2665C43.6724 67.5111 43.6932 67.7588 43.7613 67.9954C43.8295 68.232 43.9435 68.4529 44.097 68.6454C44.2505 68.8379 44.4404 68.9983 44.6559 69.1174C44.8713 69.2365 45.1082 69.3121 45.3528 69.3396C45.5975 69.3672 45.8452 69.3464 46.0818 69.2783C46.3183 69.2101 46.5392 69.0961 46.7317 68.9426C46.9242 68.7891 47.0846 68.5992 47.2037 68.3837L48.431 66.1571C48.5502 65.9416 48.6257 65.7047 48.6533 65.46C48.6809 65.2152 48.66 64.9675 48.5917 64.7308C48.5235 64.4942 48.4093 64.2734 48.2556 64.0809C48.102 63.8884 47.9119 63.7282 47.6962 63.6092V63.6092Z" fill="#F0C191"/>
<path d="M44.5289 60.8035C44.2697 60.6604 43.9849 60.5697 43.6907 60.5367C43.3965 60.5036 43.0987 60.5288 42.8142 60.6109C42.5298 60.6929 42.2643 60.8302 42.0329 61.0149C41.8015 61.1996 41.6087 61.428 41.4656 61.6871L39.9865 64.3647C39.6974 64.8883 39.6281 65.5053 39.7939 66.08C39.9597 66.6547 40.347 67.1399 40.8706 67.4291C41.3942 67.7182 42.0113 67.7874 42.5859 67.6216C43.1606 67.4558 43.6459 67.0685 43.935 66.5449L45.4104 63.8674C45.6996 63.3442 45.7692 62.7275 45.6039 62.153C45.4386 61.5784 45.052 61.093 44.5289 60.8035V60.8035Z" fill="#F0C191"/>
<path d="M40.582 58.6231C40.0586 58.334 39.4419 58.2647 38.8674 58.4303C38.2929 58.5959 37.8078 58.9829 37.5186 59.5062L36.0395 62.1843C35.7504 62.7079 35.6812 63.3249 35.847 63.8996C36.0128 64.4743 36.4001 64.9595 36.9237 65.2486C37.4473 65.5378 38.0643 65.607 38.639 65.4412C39.2137 65.2754 39.699 64.8881 39.9881 64.3645L41.4672 61.687C41.6103 61.4277 41.7008 61.1427 41.7338 60.8484C41.7667 60.5541 41.7414 60.2562 41.6592 59.9717C41.577 59.6872 41.4395 59.4216 41.2547 59.1903C41.0699 58.9589 40.8413 58.7661 40.582 58.6231Z" fill="#F0C191"/>
<path d="M36.635 56.4429C36.1117 56.1538 35.495 56.0845 34.9205 56.2501C34.346 56.4157 33.8608 56.8027 33.5717 57.326L32.0921 60.0036C31.9489 60.2628 31.8582 60.5477 31.8251 60.8421C31.792 61.1364 31.8172 61.4344 31.8993 61.7189C31.9814 62.0035 32.1187 62.2691 32.3034 62.5007C32.4882 62.7322 32.7167 62.925 32.976 63.0682C33.2352 63.2114 33.5201 63.3021 33.8145 63.3352C34.1088 63.3683 34.4068 63.343 34.6913 63.261C34.9759 63.1789 35.2415 63.0416 35.4731 62.8568C35.7046 62.6721 35.8974 62.4436 36.0406 62.1843L37.5197 59.5063C37.6628 59.247 37.7534 58.9622 37.7864 58.6679C37.8193 58.3737 37.794 58.0758 37.7119 57.7913C37.6297 57.5069 37.4923 57.2414 37.3076 57.01C37.1228 56.7787 36.8943 56.586 36.635 56.4429V56.4429Z" fill="#F0C191"/>
<path d="M71.2087 30.6258L63.0852 35.7691C62.6714 36.0311 62.5483 36.579 62.8103 36.9929L72.9033 52.9342C73.1654 53.3481 73.7133 53.4711 74.1272 53.2091L82.2507 48.0658C82.6645 47.8038 82.7876 47.2559 82.5256 46.842L72.4326 30.9007C72.1705 30.4868 71.6226 30.3638 71.2087 30.6258Z" fill="#F26176"/>
<path d="M82.5175 46.8442L79.7488 42.472C79.7343 42.4859 79.7189 42.4987 79.7039 42.5126L79.8219 42.6994C79.9472 42.8982 79.9887 43.1385 79.9372 43.3679C79.8857 43.5972 79.7454 43.7968 79.5471 43.9229L71.4254 49.0656C71.2737 49.1607 71.0969 49.2077 70.9181 49.2006C70.7393 49.1934 70.5668 49.1324 70.4233 49.0255L72.897 52.9362C73.023 53.1346 73.2226 53.275 73.4519 53.3265C73.6813 53.378 73.9217 53.3365 74.1205 53.211L82.2427 48.0688C82.441 47.9424 82.5812 47.7427 82.6327 47.5132C82.6842 47.2838 82.6428 47.0433 82.5175 46.8442V46.8442Z" fill="#E95A6A"/>
<path d="M25.7724 29.7122L14.5285 44.8611C14.2366 45.2544 14.3188 45.8099 14.7121 46.1018L22.4318 51.8315C22.8251 52.1234 23.3806 52.0412 23.6725 51.6479L34.9163 36.499C35.2082 36.1057 35.126 35.5502 34.7328 35.2583L27.013 29.5286C26.6197 29.2367 26.0643 29.3189 25.7724 29.7122Z" fill="#6BB3D9"/>
<path d="M26.6175 47.5839L26.4654 47.7888C26.3959 47.8824 26.3087 47.9614 26.2086 48.0213C26.1086 48.0811 25.9977 48.1207 25.8823 48.1376C25.767 48.1545 25.6494 48.1484 25.5364 48.1198C25.4234 48.0912 25.3171 48.0405 25.2237 47.9707L17.5038 42.2427C17.3594 42.1361 17.2507 41.9882 17.1924 41.8184C17.1341 41.6487 17.1288 41.4652 17.1773 41.2924L14.5307 44.8583C14.3906 45.0472 14.3311 45.2839 14.3651 45.5166C14.3991 45.7493 14.5239 45.959 14.7121 46.1L22.4352 51.828C22.5289 51.8974 22.6354 51.9477 22.7486 51.9759C22.8617 52.0041 22.9793 52.0098 23.0947 51.9925C23.21 51.9752 23.3208 51.9353 23.4207 51.8751C23.5206 51.8149 23.6077 51.7356 23.6769 51.6418L26.6543 47.6276C26.642 47.6132 26.6281 47.5988 26.6175 47.5839V47.5839Z" fill="#4FA4D1"/>
</svg>
