<svg width="98" height="98" viewBox="0 0 98 98" fill="none" xmlns="http://www.w3.org/2000/svg">
<circle cx="49" cy="49" r="49" fill="#222222" fill-opacity="0.1"/>
<path d="M49.0083 56.4608C49.0083 56.1574 49.2542 55.9117 49.5576 55.9117H50.7217C50.292 55.9117 49.9435 55.5633 49.9435 55.1334V48.2076H48.9087C48.921 48.3312 48.8818 48.4589 48.7872 48.5536L47.7733 49.5675C47.6058 49.735 47.334 49.735 47.1666 49.5675L45.2609 47.6619L47.3465 58.145H50.6925C49.7622 58.145 49.0083 57.391 49.0083 56.4608Z" fill="#DAE6F1"/>
<path d="M43.8935 53.3163C43.8623 53.2369 43.8719 53.1471 43.9193 53.0761L44.469 52.2513C44.5471 52.134 44.5182 51.9759 44.4036 51.8942L43.3836 51.1657C43.3124 51.1148 43.2712 51.0315 43.2745 50.944L43.3968 47.5201C43.3087 47.5446 43.2209 47.5701 43.1323 47.5923L39.8981 48.4064C38.9556 48.6437 38.2769 49.4662 38.2229 50.4364L37.7758 58.1451H45.7896L43.8935 53.3163Z" fill="#3A70BF"/>
<path d="M45.2609 47.6617L44.9009 47.3016C44.8266 47.2274 44.7872 47.1326 44.7788 47.0358C44.3297 47.2279 43.8677 47.3887 43.397 47.5198L43.2747 50.9437C43.2716 51.0312 43.3126 51.1144 43.3838 51.1654L44.4038 51.8938C44.5185 51.9758 44.5474 52.1339 44.4693 52.251L43.9195 53.0758C43.8721 53.1468 43.8625 53.2366 43.8937 53.316L45.7898 58.1448H47.3465L45.2609 47.6617Z" fill="#5290DB"/>
<path d="M48.9087 48.2076C48.9209 48.3313 48.8817 48.459 48.7872 48.5537L47.9375 49.4034L47.9589 49.4571L48.7246 50.6056H49.9432V48.2076H48.9087Z" fill="#FC657E"/>
<path d="M49.0083 56.4607C49.0083 56.1573 49.2542 55.9115 49.5576 55.9115H50.7218C50.292 55.9115 49.9435 55.5632 49.9435 55.1333V50.6053H48.7246L47.3465 58.1448H50.6925C49.7622 58.1448 49.0083 57.3909 49.0083 56.4607Z" fill="#FC657E"/>
<path d="M49.8133 50.1269H48.9805L48.3569 49.1915C48.2105 48.9718 47.913 48.9124 47.6933 49.0588C47.4735 49.2055 47.414 49.5025 47.5606 49.7224L48.3263 50.8709C48.4151 51.0039 48.5644 51.0839 48.7244 51.0839H49.8131C50.0774 51.0839 50.2916 50.8697 50.2916 50.6054C50.2916 50.3411 50.0776 50.1269 49.8133 50.1269Z" fill="#222222"/>
<path d="M48.805 50.1662C48.5465 50.1183 48.2959 50.2908 48.2484 50.5509L46.9007 57.9235C46.8531 58.1832 47.0254 58.4326 47.2855 58.4801C47.3144 58.4855 47.3435 58.4879 47.372 58.4879C47.5986 58.4879 47.7998 58.3262 47.8421 58.0954L49.1898 50.7228C49.2374 50.463 49.065 50.2136 48.805 50.1662Z" fill="#222222"/>
<path d="M70.1994 58.145H28.781C28.0617 58.145 27.4785 58.7282 27.4785 59.4475C27.4785 60.1668 28.0617 60.7501 28.781 60.7501H70.1996C70.9189 60.7501 71.5021 60.1668 71.5021 59.4475C71.502 58.7282 70.9187 58.145 70.1994 58.145Z" fill="#AD7753"/>
<path d="M28.9193 60.7501C28.9734 61.8645 29.8991 62.7599 31.0261 62.7599H67.9543C69.0814 62.7599 70.0069 61.8645 70.0611 60.7501H28.9193Z" fill="#8E6244"/>
<path d="M67.9542 62.7597H31.0262C30.943 62.7597 30.8612 62.7533 30.7803 62.7438V71.84C30.7803 72.2163 31.0854 72.5214 31.4617 72.5214H67.5188C67.8951 72.5214 68.2002 72.2163 68.2002 71.84V62.7438C68.1194 62.7533 68.0377 62.7597 67.9542 62.7597Z" fill="#8E6244"/>
<path d="M48.7872 47.9468L46.5215 45.6812C46.354 45.5137 46.0822 45.5137 45.9148 45.6812L44.9009 46.695C44.7334 46.8625 44.7334 47.1343 44.9009 47.3018L47.1666 49.5675C47.334 49.7349 47.6058 49.7349 47.7733 49.5675L48.7872 48.5536C48.9547 48.3861 48.9547 48.1143 48.7872 47.9468Z" fill="#EDF4FC"/>
<path d="M49.4902 44.5235C48.5565 44.5235 47.6747 44.2917 46.8976 43.885V44.8009C46.8976 45.155 46.801 45.4942 46.6277 45.7876L48.787 47.9468C48.8599 48.0198 48.899 48.1124 48.9085 48.2075H49.9433V44.5031C49.7936 44.5151 49.643 44.5235 49.4902 44.5235Z" fill="#F9D0B4"/>
<path d="M55.1168 33.7948C55.1135 33.6352 54.9859 33.5037 54.8262 33.4989C52.4884 33.4304 51.2565 32.5038 50.7832 32.0398C50.654 31.9131 50.4453 31.9265 50.3328 32.0682C48.2773 34.6531 45.2452 34.2883 44.2256 34.0749C44.0403 34.036 43.8625 34.1757 43.8625 34.365V38.8958C43.8625 41.991 46.3948 44.5233 49.49 44.5233C49.6426 44.5233 49.7934 44.5153 49.9431 44.5034V44.3461C49.9431 43.9162 50.2914 43.5679 50.7213 43.5679H52.6168C54.1221 42.5551 55.1176 40.8363 55.1176 38.8958V33.8829C55.1177 33.8534 55.1176 33.8241 55.1168 33.7948Z" fill="#F9D0B4"/>
<path d="M53.8938 27.8254C53.2942 27.8254 52.7335 27.9948 52.2518 28.2838C51.689 27.3446 50.6637 26.7104 49.4949 26.7104H47.8443C44.6495 26.7104 42.0355 29.3245 42.0355 32.5192V35.122C42.4374 34.8002 42.9466 34.6069 43.5014 34.6069C43.6243 34.6069 43.7447 34.6173 43.8626 34.6354V34.365C43.8628 34.1757 44.0404 34.0359 44.2257 34.0748C45.2452 34.2882 48.2774 34.653 50.3329 32.0681C50.4455 31.9265 50.6541 31.9131 50.7833 32.0398C51.2566 32.5037 52.4883 33.4303 54.8264 33.4989C54.986 33.5036 55.1137 33.6351 55.1169 33.7948C55.1175 33.8241 55.1179 33.8533 55.1179 33.8828V34.6356C55.2356 34.6174 55.3562 34.6071 55.4791 34.6071C56.1124 34.6071 56.6861 34.8588 57.1087 35.2663V31.0399C57.1085 29.2718 55.6619 27.8254 53.8938 27.8254Z" fill="#754E34"/>
<path d="M55.4789 34.6069C55.356 34.6069 55.2356 34.6173 55.1177 34.6356V38.896C55.1177 39.0229 55.112 39.1484 55.1036 39.2734C55.2261 39.2931 55.3509 39.3061 55.4789 39.3061C56.7765 39.3061 57.8284 38.2542 57.8284 36.9566C57.8284 35.6589 56.7765 34.6069 55.4789 34.6069Z" fill="#F9D0B4"/>
<path d="M43.8627 38.896V34.6356C43.745 34.6175 43.6244 34.6069 43.5016 34.6069C42.204 34.6069 41.152 35.6589 41.152 36.9564C41.152 38.254 42.204 39.306 43.5016 39.306C43.6296 39.306 43.7544 39.2929 43.8769 39.2732C43.8685 39.1484 43.8627 39.0229 43.8627 38.896Z" fill="#F9D0B4"/>
<path d="M51.4803 39.8643C51.278 39.6945 50.9757 39.7213 50.8063 39.9238C50.5533 40.2257 50.1203 40.4062 49.6483 40.4062C49.1763 40.4062 48.7434 40.2258 48.4903 39.9236C48.32 39.7207 48.0187 39.6947 47.8162 39.8643C47.6137 40.0341 47.5873 40.3359 47.7569 40.5384C48.1898 41.0546 48.8969 41.363 49.6483 41.363C50.4002 41.363 51.1072 41.0548 51.5398 40.5382C51.7096 40.3357 51.683 40.0341 51.4803 39.8643Z" fill="#222222"/>
<path d="M51.9838 36.536C51.5871 36.536 51.2654 36.8577 51.2654 37.2545C51.2654 37.6512 51.5871 37.9729 51.9838 37.9729C52.3806 37.9729 52.7023 37.6512 52.7023 37.2545C52.7023 36.8577 52.3806 36.536 51.9838 36.536Z" fill="#222222"/>
<path d="M47.161 36.536C46.7642 36.536 46.4425 36.8577 46.4425 37.2545C46.4425 37.6512 46.7642 37.9729 47.161 37.9729C47.5577 37.9729 47.8794 37.6512 47.8794 37.2545C47.8794 36.8577 47.5577 36.536 47.161 36.536Z" fill="#222222"/>
<path d="M41.7365 51.822C41.4722 51.822 41.258 52.0362 41.258 52.3005V57.7786C41.258 58.0429 41.4722 58.2571 41.7365 58.2571C42.0008 58.2571 42.215 58.0429 42.215 57.7786V52.3005C42.215 52.0364 42.0008 51.822 41.7365 51.822Z" fill="#222222"/>
<path d="M49.1253 47.6084L46.8598 45.3428C46.6883 45.1713 46.4605 45.0769 46.218 45.0769C45.9755 45.0769 45.7477 45.1713 45.5762 45.3428L44.5623 46.3566C44.2082 46.7106 44.2082 47.2863 44.5623 47.6402L46.828 49.9059C46.9995 50.0774 47.2273 50.1718 47.4698 50.1718C47.7123 50.1718 47.9401 50.0774 48.1116 49.9059L49.1255 48.892C49.297 48.7205 49.3915 48.4925 49.3915 48.2502C49.3913 48.0077 49.2968 47.7798 49.1253 47.6084ZM47.4698 49.1942L45.274 46.9982L46.218 46.0542L48.4138 48.2502L47.4698 49.1942Z" fill="#222222"/>
<path d="M49.7493 47.7289H48.9851C48.7206 47.7289 48.5063 47.9432 48.5063 48.2076C48.5063 48.472 48.7206 48.6863 48.9851 48.6863H49.7493C50.0137 48.6863 50.228 48.472 50.228 48.2076C50.228 47.9432 50.0136 47.7289 49.7493 47.7289Z" fill="#222222"/>
<path d="M46.8976 43.5487C46.6333 43.5487 46.4191 43.7629 46.4191 44.0272V44.8007C46.4191 45.0346 46.3619 45.2679 46.2535 45.476C46.1314 45.7104 46.2227 45.9993 46.457 46.1214C46.5276 46.158 46.6032 46.1756 46.6775 46.1756C46.8501 46.1756 47.0169 46.0818 47.1024 45.9177C47.2816 45.5738 47.3761 45.1875 47.3761 44.8005V44.027C47.3761 43.7629 47.1619 43.5487 46.8976 43.5487Z" fill="#222222"/>
<path d="M45.1412 46.8845C45.039 46.6407 44.7584 46.5252 44.5151 46.628C44.028 46.8319 43.5235 47.0003 43.0155 47.1282L39.7813 47.9422C38.6294 48.2322 37.8111 49.2239 37.7451 50.4089L37.3056 57.987C37.2903 58.2508 37.4919 58.4772 37.7558 58.4925C37.7652 58.4931 37.7746 58.4933 37.7838 58.4933C38.0353 58.4933 38.2464 58.2969 38.2611 58.0425L38.7006 50.4632C38.7433 49.6978 39.2714 49.0577 40.0148 48.8707L43.249 48.0565C43.8033 47.917 44.3536 47.7334 44.8847 47.5108C45.1286 47.4086 45.2434 47.1282 45.1412 46.8845Z" fill="#222222"/>
<path d="M55.5953 33.7853C55.5871 33.3686 55.2556 33.0327 54.8406 33.0207C52.6328 32.956 51.5021 32.0743 51.1185 31.698C50.9603 31.543 50.7422 31.4603 50.5229 31.476C50.3022 31.4896 50.0964 31.5972 49.9588 31.7706C48.1029 34.104 45.4001 33.8316 44.324 33.6066C44.0936 33.5583 43.8549 33.6157 43.6711 33.765C43.4893 33.9126 43.3848 34.1314 43.3846 34.3689V38.8959C43.3846 42.2627 46.1238 45.0017 49.4906 45.0017C49.5904 45.0017 49.6895 44.9992 49.7881 44.9947C50.052 44.9822 50.2559 44.7583 50.2434 44.4941C50.231 44.2302 50.0028 44.0265 49.7429 44.0388C49.6593 44.0428 49.5752 44.0447 49.4908 44.0447C46.6517 44.0447 44.3418 41.735 44.3418 38.8959V34.5841C45.5019 34.7872 48.4869 35.0061 50.5887 32.5123C51.2114 33.0683 52.4726 33.8684 54.64 33.9706V38.8959C54.64 40.567 53.816 42.1435 52.4362 43.1126C52.2199 43.2645 52.1676 43.5629 52.3196 43.779C52.4716 43.9955 52.7702 44.0476 52.9861 43.8956C54.6209 42.7475 55.5971 40.8783 55.5971 38.8957V33.8828L55.5953 33.7853Z" fill="#222222"/>
<path d="M53.8938 27.347C53.3824 27.347 52.8758 27.4559 52.4064 27.6649C51.7099 26.7716 50.6307 26.2321 49.4949 26.2321H47.8443C44.3775 26.2321 41.5569 29.0524 41.5569 32.5194V35.0017C41.5569 35.266 41.7711 35.4802 42.0355 35.4802C42.2998 35.4802 42.514 35.266 42.514 35.0017V32.5194C42.514 29.5803 44.905 27.1891 47.8443 27.1891H49.4949C50.4466 27.1891 51.3457 27.7028 51.8412 28.5299C51.9065 28.6386 52.0123 28.7173 52.1354 28.7481C52.2583 28.7791 52.3888 28.7598 52.4979 28.6943C52.9236 28.4392 53.4061 28.3042 53.8938 28.3042C55.4025 28.3042 56.63 29.5315 56.63 31.0402V35.1558C56.63 35.4201 56.8442 35.6343 57.1085 35.6343C57.3728 35.6343 57.587 35.4201 57.587 35.1558V31.04C57.587 29.0038 55.9302 27.347 53.8938 27.347Z" fill="#222222"/>
<path d="M55.479 34.1285C55.4003 34.1285 55.3224 34.1322 55.2453 34.1387C54.9821 34.1611 54.7867 34.3929 54.8092 34.6562C54.8316 34.9194 55.0632 35.1131 55.3268 35.0923C55.377 35.0881 55.4275 35.0856 55.479 35.0856C56.5108 35.0856 57.35 35.9249 57.35 36.9566C57.35 37.9882 56.5106 38.8276 55.479 38.8276C55.4219 38.8276 55.3658 38.8241 55.3103 38.8184C55.0481 38.7897 54.8123 38.9818 54.7849 39.2448C54.7574 39.5076 54.9484 39.7431 55.2114 39.7702C55.304 39.78 55.3915 39.7846 55.479 39.7846C57.0384 39.7846 58.307 38.516 58.307 36.9566C58.307 35.3972 57.0385 34.1285 55.479 34.1285Z" fill="#222222"/>
<path d="M43.6436 38.8209C43.5969 38.8249 43.5496 38.8276 43.5016 38.8276C42.4697 38.8276 41.6306 37.9882 41.6306 36.9566C41.6306 35.9249 42.4699 35.0856 43.5016 35.0856C43.5509 35.0856 43.5999 35.0879 43.6482 35.0917C43.9144 35.112 44.1424 34.9162 44.1632 34.6528C44.1841 34.3892 43.9877 34.1588 43.7243 34.1377C43.6507 34.132 43.5768 34.1285 43.5016 34.1285C41.9422 34.1285 40.6735 35.3972 40.6735 36.9566C40.6735 38.516 41.9422 39.7846 43.5016 39.7846C43.5783 39.7846 43.6541 39.7808 43.7289 39.7741C43.9921 39.7505 44.1866 39.5182 44.1631 39.2548C44.1391 38.9916 43.9085 38.7958 43.6436 38.8209Z" fill="#222222"/>
<path d="M64.8752 43.568H50.7215C50.2918 43.568 49.9432 43.9164 49.9432 44.3462V55.1335C49.9432 55.5634 50.2916 55.9118 50.7215 55.9118H64.8752C65.3049 55.9118 65.6535 55.5634 65.6535 55.1335V44.3462C65.6535 43.9165 65.3049 43.568 64.8752 43.568Z" fill="#EDF4FC"/>
<path d="M66.0394 55.9115H49.5576C49.2543 55.9115 49.0083 56.1575 49.0083 56.4606C49.0083 57.3909 49.7623 58.1448 50.6925 58.1448H64.9044C65.8346 58.1448 66.5886 57.3909 66.5886 56.4606C66.5886 56.1575 66.3428 55.9115 66.0394 55.9115Z" fill="#DAE6F1"/>
<path d="M59.1076 49.2615H56.4892C56.2249 49.2615 56.0107 49.4757 56.0107 49.74C56.0107 50.0043 56.2249 50.2185 56.4892 50.2185H59.1076C59.372 50.2185 59.5862 50.0043 59.5862 49.74C59.5862 49.4757 59.372 49.2615 59.1076 49.2615Z" fill="#222222"/>
<path d="M64.8752 43.0894H50.7217C50.0286 43.0894 49.4649 43.653 49.4649 44.3461V55.1332C49.4649 55.8261 50.0286 56.3898 50.7217 56.3898H64.8752C65.5681 56.3898 66.1318 55.8261 66.1318 55.1332V44.3461C66.1318 43.6532 65.5681 43.0894 64.8752 43.0894ZM65.1748 55.1334C65.1748 55.2986 65.0404 55.433 64.8752 55.433H50.7217C50.5565 55.433 50.4219 55.2986 50.4219 55.1334V44.3463C50.4219 44.1811 50.5565 44.0466 50.7217 44.0466H64.8752C65.0404 44.0466 65.1748 44.1811 65.1748 44.3463V55.1334Z" fill="#222222"/>
<path d="M66.0394 55.4332H49.5576C48.9909 55.4332 48.5298 55.8943 48.5298 56.4611C48.5298 57.6535 49.4998 58.6238 50.6925 58.6238H64.9046C66.0971 58.6238 67.0673 57.6537 67.0673 56.4611C67.0671 55.8943 66.6062 55.4332 66.0394 55.4332ZM64.9044 57.6667H50.6923C50.0273 57.6667 49.4866 57.126 49.4866 56.4611C49.4866 56.422 49.5184 56.3903 49.5574 56.3903H66.0392C66.0781 56.3903 66.1099 56.422 66.1099 56.4611C66.1101 57.1258 65.5693 57.6667 64.9044 57.6667Z" fill="#222222"/>
<path d="M36.4945 48.3844C35.6332 48.2313 34.9633 47.5613 34.791 46.7191C34.791 46.6809 34.7145 46.6809 34.7145 46.7191C34.5422 47.5613 33.8723 48.2313 33.0109 48.3844C32.9727 48.3844 32.9727 48.4418 33.0109 48.4609C33.8723 48.6141 34.5422 49.284 34.7145 50.1262C34.7145 50.1645 34.791 50.1645 34.791 50.1262C34.9633 49.284 35.6332 48.6141 36.4945 48.4609C36.5328 48.442 36.5328 48.3844 36.4945 48.3844Z" fill="#F5C84C"/>
<path d="M62.6331 39.3527C62.0289 39.2454 61.5588 38.7753 61.4378 38.1844C61.4378 38.1576 61.384 38.1576 61.384 38.1844C61.2632 38.7753 60.7931 39.2454 60.1887 39.3527C60.1619 39.3527 60.1619 39.3929 60.1887 39.4065C60.7929 39.5141 61.263 39.984 61.384 40.5749C61.384 40.6017 61.4378 40.6017 61.4378 40.5749C61.5588 39.984 62.0287 39.5139 62.6331 39.4065C62.6599 39.3929 62.6599 39.3527 62.6331 39.3527Z" fill="#70D6F9"/>
<path d="M61.8845 27.1863H61.4443V26.746C61.4443 26.4207 61.1763 26.1335 60.8318 26.1335C60.4873 26.1335 60.2193 26.4015 60.2193 26.746V27.1863H59.7791C59.4537 27.1863 59.1666 27.4542 59.1666 27.7988C59.1666 28.1433 59.4345 28.4113 59.7791 28.4113H60.2193V28.8515C60.2193 29.1769 60.4873 29.464 60.8318 29.464C61.1763 29.464 61.4443 29.196 61.4443 28.8515V28.4113H61.8845C62.2099 28.4113 62.497 28.1433 62.497 27.7988C62.497 27.4544 62.2291 27.1863 61.8845 27.1863Z" fill="#87D147"/>
<path d="M33.0112 52.9023C32.6516 52.9023 32.3601 53.1938 32.3601 53.5534C32.3601 53.913 32.6516 54.2045 33.0112 54.2045C33.3708 54.2045 33.6622 53.913 33.6622 53.5534C33.6622 53.1938 33.3708 52.9023 33.0112 52.9023Z" fill="#FC657E"/>
<path d="M56.5447 24C56.1851 24 55.8936 24.2914 55.8936 24.6511C55.8936 25.0107 56.1851 25.3021 56.5447 25.3021C56.9043 25.3021 57.1957 25.0107 57.1957 24.6511C57.1957 24.2914 56.9043 24 56.5447 24Z" fill="#F5C84C"/>
<path d="M70.1994 57.6667H28.781C27.7989 57.6667 27 58.4657 27 59.4478C27 60.4299 27.7989 61.2288 28.781 61.2288H70.1996C71.1817 61.2288 71.9807 60.4299 71.9807 59.4478C71.9807 58.4657 71.1815 57.6667 70.1994 57.6667ZM70.1994 60.2716H28.781C28.3266 60.2716 27.957 59.902 27.957 59.4476C27.957 58.9932 28.3266 58.6236 28.781 58.6236H70.1996C70.654 58.6236 71.0236 58.9932 71.0236 59.4476C71.0236 59.902 70.6538 60.2716 70.1994 60.2716Z" fill="#222222"/>
<path d="M70.1039 60.409C69.8438 60.3788 69.6046 60.5681 69.5747 60.8309C69.4815 61.6578 68.7846 62.2814 67.9541 62.2814H31.0262C30.1973 62.2814 29.4843 61.6339 29.4033 60.8074C29.3773 60.5444 29.1424 60.3533 28.8804 60.3778C28.6174 60.4037 28.425 60.6378 28.4509 60.9008C28.5818 62.2335 29.6889 63.2384 31.0262 63.2384H67.9543C69.2723 63.2384 70.3778 62.2496 70.526 60.9381C70.5555 60.6755 70.3665 60.4387 70.1039 60.409Z" fill="#222222"/>
<path d="M68.2002 62.377C67.9359 62.377 67.7217 62.5911 67.7217 62.8555V71.8399C67.7217 71.9519 67.6306 72.043 67.5186 72.043H31.4619C31.3499 72.043 31.2588 71.9519 31.2588 71.8399V62.9154C31.2588 62.651 31.0446 62.4369 30.7803 62.4369C30.5159 62.4369 30.3018 62.651 30.3018 62.9154V71.8399C30.3018 72.4796 30.8222 73 31.4619 73H67.5188C68.1585 73 68.6789 72.4796 68.6789 71.8399V62.8555C68.6787 62.5911 68.4645 62.377 68.2002 62.377Z" fill="#222222"/>
<path d="M47.7887 57.9154L45.7372 47.604C45.6853 47.3448 45.4336 47.1773 45.1744 47.228C44.9153 47.2797 44.747 47.5316 44.7985 47.7908L46.85 58.1022C46.8954 58.3298 47.0952 58.4873 47.3188 58.4873C47.3498 58.4873 47.3812 58.4843 47.4127 58.4781C47.6719 58.4267 47.8403 58.1748 47.7887 57.9154Z" fill="#222222"/>
<path d="M46.1814 57.8335L44.3804 53.2472L44.8674 52.517C45.0901 52.183 45.0086 51.7385 44.6819 51.505L43.757 50.8443L43.8713 47.6419C43.8808 47.3777 43.6743 47.1561 43.4102 47.1467C43.1533 47.1352 42.9244 47.3436 42.915 47.6078L42.7965 50.9268C42.7873 51.176 42.9033 51.411 43.1056 51.5552L43.9543 52.1613L43.521 52.8112C43.3876 53.0118 43.36 53.2658 43.4481 53.4918L45.2906 58.1838C45.3646 58.3723 45.5451 58.4875 45.7361 58.4875C45.7943 58.4875 45.8533 58.4768 45.9109 58.4542C46.1569 58.3572 46.278 58.0794 46.1814 57.8335Z" fill="#222222"/>
</svg>
